<svg xmlns="http://www.w3.org/2000/svg" width="128" height="128" viewBox="0 0 128 128"><g fill="none" transform="translate(.125 .125)"><path fill="#000" d="M73.148,63.875 C73.1477239,68.9968888 68.9953888,73.1487761 63.8735,73.1485 C58.7516112,73.1482239 54.5997239,68.9958888 54.6,63.874 C54.6002763,58.7521113 58.7526113,54.6002241 63.8745,54.6005002 C68.9963887,54.6007763 73.148276,58.7531113 73.148,63.875 Z M105.039,40.102 C103.026423,36.6276039 100.576796,33.4255116 97.75,30.574 L87.023,36.762 C83.7173441,33.9399305 79.92691,31.7412958 75.836,30.273 C72.2585583,33.8646198 69.3287736,38.0475133 67.176,42.637 C79.113,41.824 91.437,46.148 102.875,55.085 L109.625,51.187 C108.573461,47.3118616 107.032381,43.586522 105.039,40.101 L105.039,40.102 Z M63.875,111.398 C67.8866186,111.385166 71.8805551,110.865723 75.762,109.852 L75.762,97.477 C79.8627459,96.0278298 83.6636821,93.8404698 86.977,91.023 C85.6526545,86.1288306 83.4962049,81.4989753 80.602,77.336 C75.336,88.074 65.437,96.586 51.977,102.023 L51.977,109.813 C55.8571831,110.856452 59.8569721,111.38895 63.875,111.397 L63.875,111.398 Z M22.711,40.113 C20.7138278,43.5942254 19.1687008,47.3159046 18.113,51.188 L28.836,57.375 C28.043,61.648 28.036,66.035 28.813,70.313 C33.7124653,71.6164342 38.8001609,72.0643436 43.852,71.637 C37.175,61.711 34.762,48.875 36.773,34.5 L30.023,30.602 C27.1905599,33.447993 24.7333336,36.6442019 22.711,40.113 Z"/><path fill="#00B4FF" d="M63.875,0 C28.598,0 0,28.598 0,63.875 C0,99.152 28.598,127.75 63.875,127.75 C99.152,127.75 127.75,99.152 127.75,63.875 C127.75,28.598 99.152,0 63.875,0 Z M63.875,8.175 C94.585,8.175 119.575,33.164 119.575,63.875 C119.575,94.585 94.585,119.575 63.875,119.575 C33.165,119.575 8.175,94.585 8.175,63.875 C8.175,33.165 33.165,8.175 63.875,8.175 L63.875,8.175 Z M63.875,16.336 C59.8633437,16.3521176 55.8696517,16.8728733 51.988,17.886 L51.988,30.262 C47.8875296,31.7094532 44.0865821,33.895125 40.773,36.711 C42.0957867,41.6057384 44.2523566,46.2358517 47.148,50.398 C52.414,39.664 62.312,31.148 75.773,25.711 L75.773,17.925 C71.8907462,16.8912223 67.8924757,16.3569098 63.875,16.335 L63.875,16.336 Z M88.965,55.975 C87.2804306,55.9249746 85.5943794,55.970715 83.915,56.112 C90.585,66.038 93,78.874 90.988,93.249 L97.738,97.147 C100.560827,94.2953313 103.013747,91.0999168 105.039,87.636 C107.039,84.163 108.574,80.436 109.637,76.561 L98.925,70.375 C99.725,66.051 99.725,61.675 98.948,57.437 C95.6870009,56.5690711 92.336977,56.0791838 88.964,55.977 L88.965,55.975 Z M24.875,72.649 L18.125,76.552 C19.1858092,80.4239713 20.726417,84.1481707 22.711,87.638 C24.7246352,91.1113853 27.1741678,94.3130175 30,97.165 L40.727,90.978 C44.0319278,93.7998728 47.8226413,95.9969753 51.914,97.462 C55.4913572,93.8718258 58.4211607,89.6902587 60.574,85.102 C48.637,85.915 36.313,81.587 24.875,72.649 Z"/></g></svg>