<svg xmlns="http://www.w3.org/2000/svg" width="458" height="512" viewBox="0 0 458 512"><g class="shield" fill="none" fill-rule="evenodd" transform="translate(.433 .001)"><path fill="#2E71AC" fill-rule="nonzero" d="M450.922658,71.6565978 C450.003641,65.0546959 445.254737,59.627502 438.833211,57.840406 L233.051599,0.61241475 C230.117903,-0.20413825 227.016929,-0.20413825 224.083233,0.61241475 L18.3016207,57.840406 C11.8794471,59.626472 7.13008418,65.0541902 6.21217402,71.6565978 C5.01862282,80.2390117 -22.209961,283.022245 47.6295161,383.900746 C117.386449,484.658776 220.292871,510.479639 224.638736,511.53041 C227.220563,512.15547 229.914269,512.15547 232.496096,511.53041 C236.844191,510.479639 339.750614,484.658776 409.505316,383.900746 C479.344793,283.024476 452.116209,80.2412426 450.922658,71.6565978 Z"/><polyline class="check" stroke="#FFF" stroke-linecap="round" stroke-width="60" points="322 204 212 312 152 253.091"/></g></svg>
