<svg height="512" viewBox="0 0 458 512" width="458" xmlns="http://www.w3.org/2000/svg"><g class="shield" fill="none" transform="translate(.433 .001)"><path d="m450.922658 71.6565978c-.919017-6.6019019-5.667921-12.0290958-12.089447-13.8161918l-205.781612-57.22799125c-2.933696-.816553-6.03467-.816553-8.968366 0l-205.7816123 57.22799125c-6.4221736 1.786066-11.17153651 7.2137842-12.08944667 13.8161918-1.1935512 8.5824139-28.42213503 211.3656472 41.41734207 312.2441482 69.7569329 100.75803 172.6633549 126.578893 177.0092199 127.629664 2.581827.62506 5.275533.62506 7.85736 0 4.348095-1.050771 107.254518-26.871634 177.00922-127.629664 69.839477-100.87627 42.610893-303.6595034 41.417342-312.2441482z" fill="#2e71ac"/><path class="check" d="m320 180-110 110-60-60" fill="none" stroke="#fff" stroke-linecap="round" stroke-miterlimit="10" stroke-width="60"/></g></svg>
