<svg xmlns="http://www.w3.org/2000/svg" width="215" height="161" viewBox="0 0 215 161"><g fill="none" transform="translate(.08 .913)"><rect width="34.883" height="37.158" x="96.982" y="119.37" fill="#B7CDE6"/><path fill="#88ACD5" d="M111.643958,129.80259 C119.777028,129.80259 127.046446,133.628329 131.86511,139.635044 L131.86511,119.36989 L96.9816125,119.36989 L96.9816125,134.428556 C101.16938,131.50774 106.214123,129.80259 111.643958,129.80259 Z"/><path fill="#2E0F07" d="M132.92065,157.086798 L95.9206499,157.086798 L95.9206499,118.086798 L132.92065,118.086798 L132.92065,157.086798 Z M97.9206499,155.086798 L130.92065,155.086798 L130.92065,120.086798 L97.9206499,120.086798 L97.9206499,155.086798 Z"/><path fill="#88ACD5" d="M174.165509,156.528135 L54.6815174,156.528135 C52.0347268,156.528135 49.8892546,154.382662 49.8892546,151.735872 L49.8892546,149.945449 C49.8892546,147.298659 52.0347268,145.153187 54.6815174,145.153187 L174.165509,145.153187 C176.812299,145.153187 178.957772,147.298659 178.957772,149.945449 L178.957772,151.735872 C178.957772,154.382359 176.811996,156.528135 174.165509,156.528135 Z"/><path fill="#2E0F07" d="M174.096407,157.086798 L54.744893,157.086798 C51.5335871,157.086798 48.9206499,154.559118 48.9206499,151.45194 L48.9206499,149.721656 C48.9206499,146.614771 51.533284,144.086798 54.744893,144.086798 L174.096407,144.086798 C177.307713,144.086798 179.92065,146.614478 179.92065,149.721656 L179.92065,151.45194 C179.92065,154.559118 177.307713,157.086798 174.096407,157.086798 Z M54.6747153,146.086798 C52.6046684,146.086798 50.9206499,147.716726 50.9206499,149.720284 L50.9206499,151.453312 C50.9206499,153.45687 52.6046684,155.086798 54.6747153,155.086798 L174.166585,155.086798 C176.236631,155.086798 177.92065,153.45687 177.92065,151.453312 L177.92065,149.720284 C177.92065,147.716726 176.236631,146.086798 174.166585,146.086798 L54.6747153,146.086798 Z"/><path fill="#B7CDE6" d="M190.922042,125.493135 L37.9249844,125.493135 C34.3960315,125.493135 31.5353006,122.632404 31.5353006,119.103451 L31.5353006,7.42812879 C31.5353006,3.89917586 34.3960315,1.038445 37.9249844,1.038445 L190.922042,1.038445 C194.450995,1.038445 197.311726,3.89917586 197.311726,7.42812879 L197.311726,119.103451 C197.311726,122.632404 194.450995,125.493135 190.922042,125.493135 Z"/><path fill="#88ACD5" d="M190.922042,1.038445 L134.724627,1.038445 C134.73191,1.55341904 134.736766,2.06930346 134.736766,2.58609827 C134.736766,58.148975 92.0706962,103.191754 39.4395604,103.191754 C36.7775967,103.191754 34.1417308,103.074618 31.5353006,102.84854 L31.5353006,119.103147 C31.5353006,122.6321 34.3960315,125.492831 37.9249844,125.492831 L190.922042,125.492831 C194.450995,125.492831 197.311726,122.6321 197.311726,119.103147 L197.311726,7.42812879 C197.311726,3.89917586 194.450995,1.038445 190.922042,1.038445 Z"/><path fill="#2E0F07" d="M191.48603 127.086798 38.3552701 127.086798C34.2558719 127.086798 30.9206499 123.742144 30.9206499 119.631457L30.9206499 7.54244375C30.9206499 3.43145228 34.2555682.0867981208 38.3552701.0867981208L191.48603.0867981208C195.585428.0867981208 198.92065 3.43145228 198.92065 7.54244375L198.92065 119.631457C198.92065 123.742449 195.585428 127.086798 191.48603 127.086798ZM38.2817107 2.08679812C35.3254356 2.08679812 32.9206499 4.48007017 32.9206499 7.42151679L32.9206499 118.752079C32.9206499 121.693526 35.3257396 124.086798 38.2817107 124.086798L191.559589 124.086798C194.51556 124.086798 196.92065 121.693526 196.92065 118.752079L196.92065 7.42151679C196.92065 4.48007017 194.51556 2.08679812 191.559589 2.08679812L38.2817107 2.08679812ZM198.942527 157.566276 16.9424475 157.566276C16.3689054 157.566276 15.9040025 157.101373 15.9040025 156.527831 15.9040025 155.954289 16.3689054 155.489386 16.9424475 155.489386L198.942527 155.489386C199.516069 155.489386 199.980972 155.954289 199.980972 156.527831 199.980972 157.101373 199.515766 157.566276 198.942527 157.566276Z"/><path fill="#B7EDEC" d="M42.7172472,109.722244 L42.7172472,16.8093353 C42.7172472,14.2748255 44.7716811,12.2203916 47.3061909,12.2203916 L181.541139,12.2203916 C184.075649,12.2203916 186.130083,14.2748255 186.130083,16.8093353 L186.130083,109.722244 C186.130083,112.256754 184.075649,114.311188 181.541139,114.311188 L47.3061909,114.311188 C44.7716811,114.311188 42.7172472,112.256754 42.7172472,109.722244 Z"/><path fill="#81E0DE" d="M181.540835,12.2203916 L133.446751,12.2203916 C133.832754,15.4901885 134.032735,18.8170361 134.032735,22.1903133 C134.032735,68.6614857 96.360427,106.333794 49.8892546,106.333794 C47.4733981,106.333794 45.0815152,106.230617 42.7169438,106.03094 L42.7169438,109.722244 C42.7169438,112.256754 44.7713776,114.311188 47.3058874,114.311188 L181.540835,114.311188 C184.075345,114.311188 186.129779,112.256754 186.129779,109.722244 L186.129779,16.8093353 C186.129779,14.2748255 184.075345,12.2203916 181.540835,12.2203916 Z"/><path fill="#88ACD5" d="M69.6227543,82.8618006 C70.785358,86.8984714 68.441861,91.1103329 64.3892085,92.2683519 L59.0319036,93.7989166 L62.0801568,104.383526 C63.2427605,108.420197 60.8992635,112.632058 56.846611,113.790077 C52.7936537,114.948096 48.5654218,112.613841 47.402818,108.57717 L44.3542601,97.9907389 L10.6606991,107.617417 C7.8974577,108.406837 4.92236266,107.583715 2.96446969,105.486893 C1.00596706,103.388249 0.397840568,100.373878 1.38913248,97.6855975 L26.3250622,30.0684008 C27.4654137,26.9817671 30.4722106,24.9775501 33.769506,25.0914089 C37.0707641,25.2122509 39.9205759,27.4338621 40.8307843,30.5954907 L54.8219613,79.1794581 L60.1792661,77.6488934 C64.2316138,76.4908744 68.4601505,78.8248262 69.6227543,82.8618006 Z M32.4673967,57.0867981 L20.9206499,89.0867981 L39.9206499,83.5385581 L32.4673967,57.0867981 Z"/><path fill="#FEEFD3" d="M24.2165966,51.9781651 C26.0859238,46.0754502 27.1013679,41.132027 26.4846544,40.9367203 C25.8679409,40.7414137 23.8526068,45.3681823 21.9832795,51.2708973 C20.1139523,57.1736122 19.0985083,62.1170354 19.7152217,62.312342 C20.3319352,62.5076486 22.3472694,57.88088 24.2165966,51.9781651 Z"/><path fill="#506DB2" d="M69.4382396,83.103215 C68.2808377,79.0686953 64.0715243,76.7356839 60.0367012,77.8930857 L54.7033666,79.4228348 L46.9581206,52.4211406 C45.5269966,60.7975863 42.2019697,68.399902 37.5098491,74.6202543 L40.0898782,83.6148509 L20.939338,89.1081097 L21.399082,87.8566347 C16.4839173,90.1416993 11.1090085,91.4040988 5.47524717,91.4040988 C4.95299006,91.4040988 4.43376756,91.3895327 3.91606237,91.3679869 L1.50961326,97.9194156 C0.523060162,100.606263 1.12816225,103.619028 3.07790191,105.716554 C5.02703465,107.812258 7.98912163,108.634942 10.739696,107.845942 L44.2825013,98.2243944 L47.317419,108.805184 C48.4748209,112.839704 52.6841343,115.172715 56.7189574,114.015313 C60.7534771,112.857911 63.0864885,108.648598 61.9290866,104.613775 L58.8944724,94.0348059 L64.2278069,92.5050569 C68.2626301,91.3473515 70.595338,87.1377346 69.4382396,83.103215 Z"/><path fill="#2E0F07" d="M54.7232155,115.086798 C50.9548904,115.086798 47.4788253,112.615857 46.3892441,108.831023 L43.631651,99.2512326 L10.9822718,108.583777 C7.82860576,109.48539 4.48070868,108.558294 2.2458344,106.164408 C0.0112645536,103.769006 -0.673719391,100.374305 0.457265211,97.3048163 L25.3617592,29.7442065 C26.6583577,26.2330121 30.0567914,23.9653278 33.8108079,24.0918328 C37.5706086,24.2295624 40.7915553,26.7414588 41.8284688,30.3424504 L55.5147525,77.8879781 L59.8636394,76.6447714 C64.4560762,75.3320932 69.2661857,77.9874832 70.5837904,82.5650201 C70.5837904,82.5650201 70.5837904,82.5650201 70.5837904,82.5650201 C71.901395,87.142557 69.2360464,91.9345758 64.6426963,93.2475575 L60.2935049,94.4907642 L63.0504892,104.068735 C63.6885898,106.28606 63.4222071,108.618361 62.3000512,110.63607 C61.1778953,112.653778 59.3345274,114.11541 57.1093951,114.751272 C56.3142048,114.978495 55.5120125,115.086798 54.7232155,115.086798 Z M44.3683885,96.9769497 C44.8225304,96.9769497 45.2403531,97.2741639 45.3715903,97.7303179 L48.4242292,108.3264 C49.4277361,111.809702 53.0907807,113.830334 56.5881001,112.831414 C58.2822811,112.347301 59.6862142,111.235331 60.5407822,109.700028 C61.3953501,108.164725 61.59831,106.389949 61.1121219,104.702696 L58.0600934,94.1084373 C57.9837927,93.8434365 58.0164494,93.5589861 58.1504335,93.3176895 C58.2847227,93.0763928 58.5096572,92.8983074 58.7760993,92.8223324 L64.1400393,91.2903724 C67.6379691,90.291453 69.6675681,86.6446527 68.6640611,83.1616545 C67.6605542,79.6786562 63.9987304,77.6574172 60.5001902,78.6566404 L55.1365554,80.1886005 C54.8704185,80.2642716 54.5847486,80.2323621 54.3424176,80.0986461 C54.1000865,79.9649301 53.9212376,79.7409557 53.8446317,79.475651 L39.8361263,30.847392 C39.0465665,28.1071255 36.593346,26.1952904 33.7314589,26.0907488 C33.6536322,26.0880137 33.5758055,26.0867981 33.498284,26.0867981 C30.7307046,26.0867981 28.2567303,27.7931968 27.2959517,30.3924537 L2.32944331,98.0706859 C1.46785567,100.406462 1.98975254,102.989916 3.69156361,104.812708 C5.39337468,106.634285 7.94212365,107.339637 10.3446805,106.65343 L44.0799719,97.0179762 C44.176416,96.9900174 44.2731653,96.9769497 44.3683885,96.9769497 Z M20.9480168,90.0867981 C20.666718,90.0867981 20.3926243,89.969134 20.1956851,89.75306 C19.9323991,89.4645538 19.8501409,89.0501317 19.9837353,88.6803304 L31.4971717,56.7719715 C31.6502799,56.3474639 32.052264,56.0724051 32.4986795,56.0873805 C32.9426932,56.103884 33.3260642,56.4091994 33.4488509,56.844098 L40.8809031,83.2201058 C40.9559561,83.4866073 40.9238334,83.7726686 40.7920403,84.0153316 C40.6599469,84.2579947 40.4386905,84.4370886 40.1766053,84.5134939 L21.2311168,90.0458449 C21.1377509,90.0736564 21.0422834,90.0867981 20.9480168,90.0867981 Z M32.6442991,61.0867981 L22.9206499,88.0867981 L38.9206499,83.4057129 L32.6442991,61.0867981 Z"/><path fill="#88ACD5" d="M212.768088,133.519189 C211.871238,138.299979 207.267652,141.44891 202.486876,140.551811 L196.167129,139.366382 L193.815511,151.901531 C192.918662,156.682321 188.315075,159.831252 183.5343,158.934153 C178.753221,158.037358 175.6041,153.434049 176.50095,148.653562 L178.853174,136.116292 L139.105557,128.660259 C135.845882,128.048766 133.205007,125.657917 132.274233,122.474762 C131.344066,119.289184 132.282109,115.853739 134.699756,113.583129 L195.523191,56.4695738 C198.30188,53.8633845 202.443563,53.3430553 205.785018,55.1663277 C209.127078,56.9983833 210.912599,60.7724361 210.210203,64.5165049 L199.415597,122.053471 L205.735344,123.238901 C210.515817,124.135091 213.664937,128.738399 212.768088,133.519189 Z M187.92065,88.0867981 L158.92065,114.8344 L181.999774,119.086798 L187.92065,88.0867981 Z"/><path fill="#FEEFD3" d="M182.149464,77.5487913 C187.161923,72.3947007 190.788773,67.7919291 190.250259,67.2682132 C189.711745,66.7444973 185.211792,70.4981576 180.199333,75.6522482 C175.186874,80.8063388 171.560024,85.4091104 172.098538,85.9328263 C172.637052,86.4565422 177.137005,82.7028819 182.149464,77.5487913 Z"/><path fill="#506DB2" d="M212.866248,133.406498 C213.764797,128.61636 210.609709,124.004353 205.819874,123.105804 L199.488151,121.918056 L205.50215,89.8609975 C199.657179,97.810473 192.249382,103.970436 184.142107,107.984928 L182.138958,118.663432 L159.403021,114.398281 L160.531594,113.338594 C154.240839,113.152269 148.00501,111.665004 142.157308,108.73296 C141.615326,108.461059 141.083965,108.175805 140.557763,107.883875 L134.650279,113.431453 C132.22805,115.706504 131.28823,119.14897 132.22016,122.340474 C133.152697,125.530157 135.798881,127.925378 139.064429,128.538067 L178.887369,136.00868 L176.530687,148.570466 C175.632138,153.360604 178.787226,157.972611 183.577365,158.87116 C188.367504,159.76971 192.97951,156.614621 193.87806,151.824786 L196.234134,139.265125 L202.565857,140.452873 C207.355389,141.351422 211.967699,138.196333 212.866248,133.406498 Z"/><path fill="#2E0F07" d="M185.151658 160.086798C184.551907 160.086798 183.944289 160.031716 183.33425 159.917011 180.752478 159.432468 178.513551 157.971272 177.030212 155.80248 175.546873 153.633687 174.996749 151.017275 175.480907 148.434759L177.639948 136.924663 138.947865 129.664989C135.287631 128.978275 132.36483 126.330992 131.319957 122.756691 130.275991 119.180877 131.313602 115.375957 134.028215 112.825825L194.793965 55.7532293C197.901351 52.838101 202.50539 52.2527752 206.250654 54.2965731 209.994405 56.3494505 211.980057 60.5460005 211.193301 64.7398266L200.599926 121.217714 205.896008 122.211315C208.47778 122.695859 210.716708 124.157055 212.200047 126.325544 213.683385 128.494337 214.23351 131.110749 213.749352 133.693265 213.749352 133.693265 213.749352 133.693265 213.749352 133.693265 212.749263 139.024451 207.599034 142.547907 202.269363 141.547647L196.973281 140.553743 194.814844 152.062024C193.928533 156.783369 189.78868 160.086798 185.151658 160.086798ZM201.576283 55.0867981C199.644024 55.0867981 197.734198 55.8062922 196.253628 57.1946673L135.378385 114.346259C133.231498 116.362297 132.410879 119.370594 133.236348 122.197351 134.062727 125.022896 136.374525 127.115612 139.269276 127.658718L179.050948 135.119756C179.613892 135.225528 179.984944 135.767119 179.879145 136.330228L177.525209 148.87561C177.142031 150.917106 177.57735 152.985576 178.750529 154.700057 179.923708 156.414538 181.694389 157.569851 183.736387 157.952631 187.952555 158.743347 192.025031 155.957505 192.815942 151.743282L195.169575 139.200021C195.220503 138.92968 195.376321 138.690556 195.603378 138.535383 195.830738 138.38021 196.11024 138.321414 196.380344 138.372027L202.705505 139.558253C206.922885 140.349575 210.994149 137.56343 211.785059 133.348904 212.168237 131.307407 211.732918 129.238938 210.559739 127.524456 209.386561 125.809975 207.615879 124.654663 205.573881 124.271883L199.24872 123.085657C198.685776 122.979885 198.314724 122.437991 198.420523 121.875185L209.224074 64.2995956C209.846435 60.9839826 208.27583 57.665945 205.315903 56.043598 204.138177 55.4007812 202.852228 55.0867981 201.576283 55.0867981ZM181.970891 120.086798C181.906735 120.086798 181.841657 120.081062 181.776272 120.068986L158.777472 115.825693C158.388541 115.753839 158.073897 115.473368 157.962774 115.09991 157.851957 114.726452 157.963694 114.323408 158.251939 114.057126L187.151316 87.366801C187.482536 87.0609699 187.976451 86.9990791 188.374898 87.2137345 188.773345 87.4283898 188.986382 87.8709844 188.902579 88.310258L183.002003 119.243876C182.907457 119.740512 182.466341 120.086798 181.970891 120.086798ZM161.92065 113.383199 181.816108 117.086798 186.92065 90.0867981 161.92065 113.383199ZM89.4779218 56.6195294 83.3895752 50.6983901 89.3107146 44.6100435C90.8705063 43.0062498 90.8346978 40.4416973 89.2309042 38.8819056 87.6271106 37.3221139 85.0625581 37.3579223 83.5027663 38.9617159L77.581627 45.050366 71.4932804 39.1292267C69.8894868 37.5694349 67.3249343 37.6052434 65.7651425 39.209037 64.2053508 40.8128306 64.2411592 43.3773832 65.8449529 44.9371749L71.9332995 50.8583142 66.0121601 56.9466608C64.4523684 58.5504545 64.4881768 61.115007 66.0919705 62.6747987 67.6957641 64.2345904 70.2603166 64.198782 71.8201084 62.5949883L77.7412477 56.5066418 83.8295943 62.4277811C85.4333879 63.9875728 87.9979404 63.9517644 89.5577322 62.3479707 91.1175239 60.7438736 91.0817154 58.1793211 89.4779218 56.6195294ZM160.998925 56.6195294 154.910578 50.6983901 160.831717 44.6100435C162.391509 43.0062498 162.355701 40.4416973 160.751907 38.8819056 159.148113 37.3221139 156.583561 37.3579223 155.023769 38.9617159L149.10263 45.050366 143.014283 39.1292267C141.410489 37.5694349 138.845937 37.6052434 137.286145 39.209037 135.726354 40.8128306 135.762162 43.3773832 137.365956 44.9371749L143.454302 50.8583142 137.533163 56.9466608C135.973371 58.5504545 136.00918 61.115007 137.612973 62.6747987 139.216767 64.2345904 141.781319 64.198782 143.341111 62.5949883L149.26225 56.5066418 155.350597 62.4277811C156.954391 63.9875728 159.518943 63.9517644 161.078735 62.3479707 162.638527 60.7438736 162.602718 58.1793211 160.998925 56.6195294Z"/><circle cx="111.957" cy="83.366" r="23.055" fill="#FFA7A4"/><path fill="#2E0F07" d="M111.920498,110.086798 C97.0327626,110.086798 84.9206499,97.9746174 84.9206499,83.0867981 C84.9206499,68.1989788 97.0327626,56.0867981 111.920498,56.0867981 C126.808234,56.0867981 138.92065,68.1989788 138.92065,83.0867981 C138.92065,97.9746174 126.808234,110.086798 111.920498,110.086798 Z M111.920499,64.0867981 C101.444009,64.0867981 92.9206499,72.6102248 92.9206499,83.0867981 C92.9206499,93.5633714 101.444009,102.086798 111.920499,102.086798 C122.396989,102.086798 130.92065,93.5633714 130.92065,83.0867981 C130.92065,72.6102248 122.397291,64.0867981 111.920499,64.0867981 Z"/></g></svg>